<svg width="1572" height="248" viewBox="0 0 1572 248" fill="none" xmlns="http://www.w3.org/2000/svg">
<path d="M514.041 23.2542C524.964 23.2064 535.853 24.4659 546.473 27.0063C556.358 29.3053 565.723 33.4299 574.08 39.1647C582.108 44.7437 588.677 52.1548 593.237 60.7779C598.232 70.5761 600.671 81.4667 600.328 92.4479H554.468C554.321 86.9086 552.93 81.4717 550.395 76.5375C548.247 72.4948 545.074 69.0802 541.193 66.6315C537.177 64.0983 532.729 62.3179 528.069 61.3784C522.754 60.3329 517.345 59.8298 511.928 59.8772C508.126 59.8981 504.335 60.3007 500.615 61.0781C496.916 61.8342 493.387 63.2592 490.205 65.2813C487.209 67.2518 484.643 69.8041 482.663 72.7854C480.569 76.1621 479.519 80.0775 479.645 84.0431C479.348 87.6728 480.08 91.3128 481.757 94.5495C484.192 97.782 487.483 100.276 491.261 101.753C497.6 104.5 504.159 106.711 510.871 108.358C519.244 110.572 530.144 113.348 543.607 116.763C547.643 117.551 553.224 119.014 560.352 121.116C567.906 123.394 575.075 126.784 581.622 131.173C588.836 135.998 594.994 142.228 599.725 149.485C605.123 158.382 607.747 168.672 607.267 179.053C607.362 188.464 605.407 197.784 601.535 206.371C597.695 214.842 591.906 222.297 584.638 228.135C576.3 234.648 566.772 239.49 556.581 242.393C543.984 246 530.918 247.721 517.812 247.497C506.158 247.516 494.548 246.053 483.266 243.145C472.697 240.514 462.718 235.932 453.849 229.636C445.303 223.411 438.33 215.292 433.484 205.921C428.219 195.247 425.73 183.429 426.244 171.549H472.102C471.867 177.865 473.16 184.145 475.874 189.86C478.436 194.692 482.105 198.858 486.585 202.018C491.142 205.225 496.256 207.566 501.669 208.922C507.583 210.431 513.666 211.189 519.772 211.174C524.317 211.156 528.855 210.804 533.349 210.123C538.051 209.447 542.626 208.082 546.926 206.071C551.038 204.166 554.653 201.34 557.486 197.815C560.385 194.03 561.878 189.363 561.71 184.607C561.817 181.998 561.376 179.395 560.415 176.966C559.454 174.537 557.994 172.333 556.128 170.498C551.893 166.567 546.92 163.507 541.495 161.492C534.821 158.891 527.964 156.783 520.979 155.188C513.436 153.386 505.592 151.436 497.747 149.185C489.76 147.15 481.903 144.643 474.215 141.679C466.861 138.942 459.949 135.15 453.698 130.423C447.654 125.819 442.666 119.985 439.066 113.311C435.158 105.541 433.24 96.93 433.484 88.2447C433.215 78.1811 435.663 68.2297 440.574 59.4277C445.228 51.4288 451.557 44.5183 459.129 39.1647C466.979 33.6034 475.767 29.4851 485.076 27.0063C494.522 24.4906 504.262 23.2292 514.041 23.2542Z" fill="black"/>
<path fill-rule="evenodd" clip-rule="evenodd" d="M688.697 83.2918C696.67 83.3065 704.632 83.8592 712.531 84.9438C720.168 85.926 727.602 88.1044 734.555 91.3979C741.011 94.445 746.609 99.0334 750.849 104.756C755.331 111.391 757.551 119.283 757.184 127.27V208.172C757.173 214.894 757.576 221.611 758.391 228.284H758.24C758.621 233.328 760.06 238.237 762.464 242.693H719.169C718.355 240.236 717.699 237.73 717.207 235.189C716.708 232.71 716.357 230.204 716.152 227.684C709.511 234.569 701.197 239.635 692.015 242.393C682.825 245.193 673.266 246.61 663.656 246.596C656.625 246.649 649.619 245.74 642.837 243.894C636.699 242.239 630.955 239.382 625.941 235.49C621.073 231.649 617.195 226.709 614.628 221.08C611.767 214.554 610.377 207.484 610.555 200.366C610.259 192.837 611.867 185.354 615.232 178.604C618.117 173.169 622.252 168.488 627.299 164.944C632.452 161.488 638.169 158.949 644.195 157.44C650.505 155.756 656.9 154.402 663.354 153.386C669.802 152.373 676.138 151.586 682.209 150.986C687.8 150.491 693.347 149.587 698.804 148.284C702.912 147.365 706.771 145.573 710.118 143.031C711.519 141.785 712.595 140.217 713.252 138.465C713.909 136.713 714.128 134.829 713.889 132.974C714.073 129.19 713.295 125.421 711.627 122.016C710.22 119.415 708.135 117.238 705.592 115.713C702.903 114.148 699.93 113.127 696.843 112.711C693.296 112.201 689.715 111.951 686.131 111.961C679.266 111.572 672.453 113.357 666.672 117.063C664.057 119.295 661.951 122.056 660.494 125.162C659.038 128.268 658.264 131.648 658.224 135.075H615.382C615.624 126.25 618.227 117.649 622.925 110.16C627.298 103.752 633.074 98.4149 639.82 94.5495C646.969 90.4138 654.775 87.5204 662.901 85.9938C671.39 84.2553 680.03 83.35 688.697 83.2918ZM714.267 166.745C712.29 168.451 709.978 169.729 707.478 170.498C704.614 171.438 701.691 172.191 698.728 172.75C695.598 173.35 692.354 173.837 688.922 174.25C685.491 174.662 682.097 175.15 678.665 175.751C675.449 176.348 672.274 177.15 669.161 178.153C666.245 179.058 663.494 180.427 661.015 182.205C658.694 183.915 656.786 186.12 655.433 188.659C653.921 191.738 653.195 195.142 653.321 198.566C653.218 201.892 653.945 205.192 655.433 208.172C656.764 210.691 658.742 212.815 661.166 214.326C663.76 215.892 666.625 216.961 669.614 217.478C672.897 218.085 676.23 218.387 679.569 218.378C686.368 218.765 693.145 217.312 699.181 214.175C703.413 211.757 706.947 208.294 709.439 204.12C711.624 200.438 713.034 196.352 713.587 192.112C714.022 188.927 714.274 185.719 714.342 182.505L714.267 166.745Z" fill="black"/>
<path fill-rule="evenodd" clip-rule="evenodd" d="M901.386 83.4427C913.404 83.1158 925.322 85.6902 936.121 90.9468C945.703 95.8448 954.016 102.883 960.409 111.51C966.831 120.354 971.492 130.34 974.137 140.929C976.958 152.207 977.976 163.857 977.153 175.45H864.616C865.181 189.259 868.727 199.279 875.138 205.47C881.549 211.661 890.865 214.626 902.896 214.626C910.832 214.847 918.64 212.591 925.222 208.172C930.448 205.035 934.439 200.215 936.535 194.513H1014.53C1014.38 197.896 1015.39 201.229 1017.39 203.969C1019.26 207.204 1021.84 209.976 1024.94 212.075C1028.1 214.235 1031.62 215.811 1035.35 216.728C1039.34 217.743 1043.44 218.248 1047.56 218.229C1050.76 218.216 1053.95 217.862 1057.07 217.177C1060.23 216.527 1063.28 215.414 1066.12 213.875C1068.81 212.405 1071.13 210.354 1072.91 207.872C1074.8 205.086 1075.75 201.774 1075.62 198.415C1075.62 191.999 1071.32 187.158 1062.8 184.006C1051.13 179.953 1039.18 176.743 1027.05 174.4C1020.89 173.125 1014.8 171.523 1008.79 169.597C1003.18 167.86 997.847 165.334 992.954 162.093C988.344 159.089 984.477 155.087 981.641 150.385C978.677 145.123 977.216 139.154 977.417 133.125C977.063 124.537 979.1 116.018 983.301 108.508C987.117 102.275 992.464 97.1108 998.838 93.4995C1005.57 89.6736 1012.92 87.0322 1020.56 85.6936C1028.72 84.1818 1037 83.4286 1045.3 83.4427C1053.56 83.4184 1061.8 84.2233 1069.89 85.8445C1077.4 87.3001 1084.6 90.042 1091.16 93.9491C1097.4 97.7373 1102.71 102.866 1106.7 108.959C1111.14 117.047 1113.72 126.02 1114.24 135.225H1073.51C1072.91 127.045 1069.74 119.052 1064.16 116.163C1057.95 113.141 1051.11 111.649 1044.21 111.81C1041.59 111.821 1038.97 111.972 1036.36 112.261C1033.76 112.525 1031.22 113.183 1028.82 114.212C1026.54 115.173 1024.52 116.665 1022.94 118.565C1021.27 120.705 1020.41 123.364 1020.52 126.07C1020.47 127.838 1020.83 129.594 1021.56 131.206C1022.29 132.818 1023.38 134.245 1024.75 135.376C1028 138.021 1031.74 140.009 1035.76 141.229C1040.85 142.881 1046.04 144.234 1051.3 145.282C1057.1 146.482 1063.06 147.795 1069.1 149.034C1075.24 150.573 1081.29 152.426 1087.24 154.587C1092.88 156.444 1098.22 159.125 1103.08 162.542C1107.63 165.753 1111.44 169.899 1114.24 174.701C1117.21 180.288 1118.66 186.546 1118.47 192.862C1118.88 201.257 1117.02 209.608 1113.1 217.05C1109.17 224.493 1103.32 230.756 1096.14 235.189C1089.21 239.508 1081.54 242.511 1073.51 244.045C1064.92 245.743 1056.17 246.597 1047.41 246.596C1038.54 246.6 1029.7 245.694 1021.01 243.894C1012.84 242.29 1005.02 239.24 997.933 234.889C991.179 230.69 985.498 224.986 981.339 218.229C976.919 211.53 974.487 203.725 974.324 195.713C968.252 213.687 959.239 226.634 946.945 234.476C933.361 242.788 917.628 246.962 901.688 246.484C890.281 246.774 878.924 244.875 868.238 240.892C858.754 237.251 850.2 231.561 843.195 224.232C836.189 216.794 830.785 208.008 827.318 198.415C823.509 187.824 821.621 176.644 821.737 165.395C821.649 154.331 823.59 143.343 827.469 132.974C831.054 123.334 836.585 114.526 843.719 107.092C850.853 99.6583 859.441 93.7548 868.954 89.7459C879.214 85.4476 890.255 83.3022 901.386 83.4427ZM900.181 115.413C894.304 115.209 888.462 116.392 883.133 118.865C879.167 120.767 875.642 123.472 872.785 126.806C869.928 130.139 867.801 134.029 866.539 138.227C865.517 141.547 864.871 144.97 864.616 148.433H934.311C933.084 139.391 929.349 130.867 923.525 123.818C918.497 118.214 910.715 115.413 900.181 115.413Z" fill="black"/>
<path fill-rule="evenodd" clip-rule="evenodd" d="M1495.16 83.1425C1507.17 82.8112 1519.08 85.386 1529.86 90.6466C1539.46 95.525 1547.77 102.567 1554.15 111.21C1560.6 120.036 1565.26 130.029 1567.88 140.629C1570.82 151.989 1571.89 163.749 1571.04 175.45H1458.51C1459.11 189.259 1462.66 199.279 1469.07 205.47C1475.48 211.661 1484.76 214.626 1496.82 214.626C1504.76 214.847 1512.57 212.59 1519.15 208.172C1524.38 205.035 1528.37 200.215 1530.46 194.513H1568.18C1562.14 213.124 1552.89 226.433 1540.42 234.438C1526.84 242.75 1511.1 246.924 1495.16 246.446C1483.83 246.61 1472.56 244.623 1461.98 240.592C1452.5 236.932 1443.95 231.244 1436.93 223.932C1429.95 216.482 1424.56 207.699 1421.1 198.115C1417.29 187.523 1415.4 176.344 1415.51 165.095C1415.43 154.031 1417.37 143.043 1421.25 132.674C1424.82 123.025 1430.34 114.209 1437.48 106.773C1444.61 99.3371 1453.21 93.4392 1462.73 89.4457C1472.99 85.1472 1484.03 83.0019 1495.16 83.1425ZM1494.15 115.413C1488.27 115.218 1482.43 116.4 1477.1 118.865C1473.13 120.767 1469.61 123.472 1466.75 126.806C1463.89 130.139 1461.77 134.029 1460.51 138.227C1459.51 141.554 1458.85 144.974 1458.55 148.433H1528.24C1527.03 139.398 1523.32 130.875 1517.53 123.818C1512.4 118.227 1504.63 115.413 1494.15 115.413Z" fill="black"/>
<path d="M1194.8 27.4828C1198.61 27.4829 1202.43 27.6104 1206.23 27.9292C1208.78 28.1205 1211.27 28.2795 1213 28.5027V60.7064C1209.82 60.292 1205.86 60.0679 1201.7 60.0678C1195.88 60.0679 1191.72 61.4402 1189.2 64.1821C1186.71 66.9241 1185.45 71.5474 1185.45 78.0513V87.4902H1225.6V87.487H1268.33V244.997H1225.6V116.441H1185.48V245.065H1142.76V116.472H1117.19V87.522H1142.76V75.3413C1142.76 61.3122 1147.07 49.8334 1155.7 40.9057C1164.33 31.9465 1177.36 27.4829 1194.8 27.4828Z" fill="black"/>
<path d="M812.214 28.3565V242.693H769.372V28.3565H812.214Z" fill="black"/>
<path d="M1319.85 87.495L1352.74 193.463H1353.34L1386.23 87.495H1428.77L1375.97 242.693H1328.3L1274.9 87.495H1319.85Z" fill="black"/>
<path d="M1246.95 25.5655C1259.8 25.5657 1270.19 36.0889 1270.19 49.0976C1270.19 62.1063 1259.8 72.628 1246.95 72.6282C1234.11 72.6278 1223.72 62.1061 1223.71 49.0976C1223.71 36.089 1234.11 25.5659 1246.95 25.5655Z" fill="black"/>
<path d="M94.9465 160.704C94.9465 186.454 73.692 207.329 47.4732 207.329C21.2545 207.329 0 186.454 0 160.704C0 134.953 21.2545 114.078 47.4732 114.078C73.692 114.078 94.9465 134.953 94.9465 160.704Z" fill="black"/>
<path d="M229.88 188.385C229.88 221.159 203.312 247.727 170.539 247.727C137.765 247.727 111.197 221.159 111.197 188.385C111.197 155.612 137.765 129.044 170.539 129.044C203.312 129.044 229.88 155.612 229.88 188.385Z" fill="black"/>
<path d="M180.662 59.8211C180.662 92.5945 154.094 119.163 121.32 119.163C88.5469 119.163 61.9787 92.5945 61.9787 59.8211C61.9787 27.0476 88.5469 0.479492 121.32 0.479492C154.094 0.479492 180.662 27.0476 180.662 59.8211Z" fill="black"/>
<path d="M378.687 166.265C378.687 201.379 349.462 229.845 313.411 229.845C277.36 229.845 248.135 201.379 248.135 166.265C248.135 131.15 277.36 102.684 313.411 102.684C349.462 102.684 378.687 131.15 378.687 166.265Z" fill="black"/>
<path d="M258.787 89.2582C258.787 107.05 244.364 121.472 226.573 121.472C208.781 121.472 194.359 107.05 194.359 89.2582C194.359 71.467 208.781 57.0443 226.573 57.0443C244.364 57.0443 258.787 71.467 258.787 89.2582Z" fill="black"/>
</svg>
