<svg xmlns="http://www.w3.org/2000/svg" fill="none" aria-labelledby=":r6:" aria-hidden="false" role="img" class="_5Yd-hZ" data-testid="zalando-logo" viewBox="0 0 131.7 24"><title id=":r6:">Zalando</title><path fill="#FF4C00" d="M21.803 9.411c-1.69-2.11-4.056-4.157-7.152-6.004l-.012-.006C11.518 1.598 8.591.539 5.95.105 4.299-.166 3.512.15 3.153.36c-.358.21-1.021.746-1.615 2.334C.588 5.238.025 8.343 0 11.994v.013c.025 3.65.587 6.755 1.538 9.299.594 1.588 1.257 2.124 1.615 2.334s1.147.526 2.796.255c2.642-.434 5.569-1.493 8.69-3.295l.012-.007c3.096-1.847 5.461-3.895 7.152-6.004 1.056-1.317 1.181-2.168 1.181-2.59 0-.42-.125-1.271-1.18-2.588" style="--darkreader-inline-fill: #ff5e1a;" data-darkreader-inline-fill=""/><path fill="#000" d="m28.986 17.42 10.15-9.848h-9.879V5.065h13.805v2.87l-10.15 9.847h10.392v2.508H28.986zM43.787 16.151c0-3.383 2.9-4.32 5.467-4.651l4.773-.605c1.148-.15 1.48-.664 1.48-1.359v-.03c0-1.36-1.178-2.356-3.745-2.356-2.477 0-3.867.936-4.109 2.507h-3.202c.363-3.081 3.051-4.984 7.401-4.984 4.864 0 6.857 2.054 6.857 5.437v10.18h-3.05v-2.417c-1.3 1.873-3.626 2.81-6.254 2.81-3.474 0-5.618-1.752-5.618-4.532m11.72-2.748v-.725c-.513.211-1.087.332-1.722.422l-3.806.514c-1.963.272-2.87.997-2.87 2.326 0 1.42 1.209 2.266 3.172 2.266 3.233 0 5.226-2.206 5.226-4.803M60.13 1.199h3.202v19.09H60.13zM64.389 16.151c0-3.383 2.9-4.32 5.467-4.651l4.773-.605c1.148-.15 1.48-.664 1.48-1.359v-.03c0-1.36-1.178-2.356-3.746-2.356-2.477 0-3.866.936-4.108 2.507h-3.202c.363-3.081 3.051-4.984 7.401-4.984 4.863 0 6.857 2.054 6.857 5.437v10.18h-3.05v-2.417c-1.3 1.873-3.626 2.81-6.254 2.81-3.474 0-5.618-1.752-5.618-4.532m11.72-2.748v-.725c-.513.211-1.087.332-1.722.422l-3.806.514c-1.963.272-2.87.997-2.87 2.326 0 1.42 1.209 2.266 3.172 2.266 3.232 0 5.226-2.206 5.226-4.803M80.73 5.065h3.203v2.477c1.147-1.812 3.322-2.87 5.98-2.87 3.988 0 6.344 2.296 6.344 6.526v9.092h-3.202v-8.64c0-2.809-1.48-4.35-4.199-4.35-2.93 0-4.923 1.964-4.923 4.743v8.247H80.73zM97.315 12.617c0-4.924 3.413-7.945 7.491-7.945 2.447 0 4.562.876 5.83 2.689V1.199h3.202v19.09h-3.202v-2.325c-1.389 1.873-3.383 2.718-5.83 2.718-4.078 0-7.491-3.08-7.491-8.065m13.412.03c0-3.172-1.873-5.377-5.045-5.377-3.141 0-5.044 2.175-5.044 5.347 0 3.202 1.903 5.468 5.044 5.468 3.172 0 5.045-2.266 5.045-5.438M114.896 12.647c0-4.682 3.172-7.974 8.397-7.974 5.257 0 8.398 3.292 8.398 7.974s-3.141 8.036-8.398 8.036c-5.225 0-8.397-3.353-8.397-8.036m13.472 0c0-2.96-1.631-5.376-5.075-5.376s-5.074 2.416-5.074 5.376c0 2.991 1.631 5.438 5.074 5.438 3.444 0 5.075-2.447 5.075-5.438" style="--darkreader-inline-fill: #000000;" data-darkreader-inline-fill=""/></svg>